HIERARCHY
ROOT Hips
{
	OFFSET 0.00000 0.00000 0.00000
	CHANNELS 6 Xposition Yposition Zposition Zrotation Yrotation Xrotation 
	JOINT LHipJoint
	{
		OFFSET 0 0 0
		CHANNELS 3 Zrotation Yrotation Xrotation
		JOINT LeftHip
		{
			OFFSET 1.39187 -1.60231 0.69152
			CHANNELS 3 Zrotation Yrotation Xrotation
			JOINT LeftKnee
			{
				OFFSET 2.43314 -6.68499 0.00000
				CHANNELS 3 Zrotation Yrotation Xrotation
				JOINT LeftAnkle
				{
					OFFSET 2.32059 -6.37578 0.00000
					CHANNELS 3 Zrotation Yrotation Xrotation
					JOINT LeftToe
					{
						OFFSET 0.23021 -0.63250 1.71305
						CHANNELS 3 Zrotation Yrotation Xrotation
						End Site
						{
							OFFSET 0.00000 -0.00000 0.91647
						}
					}
				}
			}
		}
	}
	JOINT RHipJoint
	{
		OFFSET 0 0 0
		CHANNELS 3 Zrotation Yrotation Xrotation
		JOINT RightHip
		{
			OFFSET -1.19407 -1.60231 0.69152
			CHANNELS 3 Zrotation Yrotation Xrotation
			JOINT RightKnee
			{
				OFFSET -2.44411 -6.71513 0.00000
				CHANNELS 3 Zrotation Yrotation Xrotation
				JOINT RightAnkle
				{
					OFFSET -2.31924 -6.37207 0.00000
					CHANNELS 3 Zrotation Yrotation Xrotation
					JOINT RightToe
					{
						OFFSET -0.19473 -0.53502 1.87724
						CHANNELS 3 Zrotation Yrotation Xrotation
						End Site
						{
							OFFSET -0.00000 -0.00000 0.98293
						}
					}
				}
			}
		}
	}
	JOINT lowerback
	{
		OFFSET 0 0 0
		CHANNELS 3 Zrotation Yrotation Xrotation
		JOINT Chest
		{
			OFFSET -0.01120 1.87307 0.09613
			CHANNELS 3 Zrotation Yrotation Xrotation
			JOINT Chest2
			{
				OFFSET 0.01099 1.87818 0.04834
				CHANNELS 3 Zrotation Yrotation Xrotation
				JOINT lowerneck
				{
					OFFSET 0 0 0
					CHANNELS 3 Zrotation Yrotation Xrotation
					JOINT Neck
					{
						OFFSET 0.01702 1.40324 -0.12579
						CHANNELS 3 Zrotation Yrotation Xrotation
						JOINT Head
						{
							OFFSET -0.04239 1.38587 -0.01614
							CHANNELS 3 Zrotation Yrotation Xrotation
							End Site
							{
								OFFSET -0.02510 1.47031 -0.00154
							}
						}
					}
				}
				JOINT LeftCollar
				{
					OFFSET 0 0 0
					CHANNELS 3 Zrotation Yrotation Xrotation
					JOINT LeftShoulder
					{
						OFFSET 2.95699 0.62343 0.11653
CHANNELS 3 Zrotation Xrotation Yrotation
						JOINT LeftElbow
						{
OFFSET 0 -4.683820 -0.000000
CHANNELS 3 Zrotation Xrotation Yrotation
							JOINT LeftWrist
							{
OFFSET 0 -2.981240 -0.000000
CHANNELS 3 Zrotation Xrotation Yrotation
								JOINT lhand
								{
									OFFSET 0 0 0
CHANNELS 3 Zrotation Xrotation Yrotation
									JOINT LFingers
									{
OFFSET 0 -0.707590 0.000000
CHANNELS 3 Zrotation Xrotation Yrotation
										End Site
										{
OFFSET 0 -0.570480 0.000000
										}
									}
								}
								JOINT LThumb
								{
OFFSET 0 0.000000 0.000000
CHANNELS 3 Zrotation Xrotation Yrotation
									End Site
									{
OFFSET 0 -0.579190 0.579190
									}
								}
							}
						}
					}
				}
				JOINT RightCollar
				{
					OFFSET 0 0 0
					CHANNELS 3 Zrotation Yrotation Xrotation
					JOINT RightShoulder
					{
						OFFSET -2.99027 0.88714 -0.02793
CHANNELS 3 Zrotation Xrotation Yrotation
						JOINT RightElbow
						{
OFFSET 0 -4.758760 -0.000000
CHANNELS 3 Zrotation Xrotation Yrotation
							JOINT RightWrist
							{
OFFSET 0 -2.932930 -0.000000
CHANNELS 3 Zrotation Xrotation Yrotation
								JOINT rhand
								{
									OFFSET 0 0 0
CHANNELS 3 Zrotation Xrotation Yrotation
									JOINT RFingers
									{
OFFSET 0 -0.831750 0.000000
CHANNELS 3 Zrotation Xrotation Yrotation
										End Site
										{
OFFSET 0 -0.670580 0.000000
										}
									}
								}
								JOINT RThumb
								{
OFFSET 0 0.000000 0.000000
CHANNELS 3 Zrotation Xrotation Yrotation
									End Site
									{
OFFSET 0 -0.680820 0.680820
									}
								}
							}
						}
					}
				}
			}
		}
	}
}
MOTION
Frames: 11
Frame Time: 0.008333333333333333
-22.159700 16.390762 2.729802 -177.116559 17.034695 -168.401518 0.000000 0.000000 0.000000 -18.208502 -9.995137 -18.057103 2.295432 9.456086 27.232656 1.994210 -3.568320 -25.829357 0.005198 0.461826 1.268964 0.000000 0.000000 0.000000 13.741229 11.770813 -14.089494 -1.432589 -7.567716 21.408641 0.110877 -9.844718 -11.981938 -0.847217 5.870715 -16.409772 -0.217685 0.744679 -13.821142 1.212253 1.500675 -4.900050 1.633066 0.981476 2.548569 3.539936 4.731476 5.840601 -9.155198 7.759446 7.487072 -3.600961 4.168288 1.945615 0.000000 0.000000 0.000000 -1.975960 0.552649 -44.042503 9.759022 -16.361714 1.406331 -30.694280 16.808042 -25.810600 0.000000 0.000000 0.000000 -7.125000 0.000000 0.000000 -55.421465 47.901738 5.660674 0.000000 0.000000 0.000000 -143.920139 -58.865299 -80.261138 -149.352249 -41.442158 -108.163959 -7.203337 -28.680991 -5.221017 0.000000 0.000000 0.000000 7.125000 0.000000 0.000000 14.454040 24.705106 7.314405
-22.162851 16.395998 2.732528 -177.146399 17.430086 -168.338905 0.000000 0.000000 0.000000 -18.280934 -9.854112 -18.101558 2.280657 9.427678 27.142654 1.995626 -3.493716 -25.852627 0.009755 0.637596 1.752151 0.000000 0.000000 0.000000 13.666044 11.741153 -14.478634 -1.476785 -7.678482 21.741771 0.067820 -9.319714 -12.005178 -0.742059 5.502489 -15.347553 -0.408270 0.796550 -13.836388 1.249951 1.588421 -4.873339 1.794542 1.024123 2.576501 3.425321 4.858591 5.947693 -8.904914 7.865761 7.258769 -3.496475 4.216530 1.840731 0.000000 0.000000 0.000000 -1.919875 0.539630 -44.967979 9.882486 -16.555460 1.441237 -31.298281 15.166692 -26.848441 0.000000 0.000000 0.000000 -7.125000 0.000000 0.000000 -56.738661 48.527583 7.116462 0.000000 0.000000 0.000000 -143.771280 -58.712789 -80.176375 -149.468567 -41.344549 -108.240868 -7.388267 -28.794291 -4.947656 0.000000 0.000000 0.000000 7.125000 0.000000 0.000000 14.348144 24.970538 7.165908
-22.174366 16.400593 2.735873 -177.111820 17.603805 -168.337977 0.000000 0.000000 0.000000 -18.298280 -9.756700 -18.116058 2.271823 9.410675 27.088666 1.977818 -3.575218 -25.717087 0.006127 0.504661 1.386643 0.000000 0.000000 0.000000 13.657760 11.699237 -14.726090 -1.510096 -7.760924 21.990309 0.047177 -9.096784 -12.071197 -0.676907 5.259638 -14.650914 -0.339126 0.799128 -13.777558 1.268939 1.574299 -4.830943 1.772186 1.013358 2.590770 3.297736 4.972485 6.126158 -8.646578 7.950580 6.984553 -3.390755 4.255682 1.705841 0.000000 0.000000 0.000000 -1.858192 0.510771 -45.455743 9.927886 -16.626702 1.454243 -31.507859 14.504002 -27.130052 0.000000 0.000000 0.000000 -7.125000 0.000000 0.000000 -57.131641 48.687140 7.513917 0.000000 0.000000 0.000000 -143.170497 -58.302587 -79.703114 -149.483564 -41.332011 -108.250766 -8.041097 -29.323691 -5.167360 0.000000 0.000000 0.000000 7.125000 0.000000 0.000000 13.846989 24.750133 6.973847
-22.184983 16.399221 2.738607 -177.167907 17.836077 -168.286154 0.000000 0.000000 0.000000 -18.395998 -9.796401 -18.168178 2.271828 9.410678 27.088733 1.963373 -3.468173 -25.639285 0.011253 0.681472 1.872823 0.000000 0.000000 0.000000 13.534678 11.652774 -15.046144 -1.537649 -7.828137 22.193183 0.057286 -9.081708 -11.844680 -0.668644 5.228726 -14.562176 -0.417030 0.775947 -13.628170 1.298102 1.560740 -4.922101 1.838414 1.011913 2.412601 3.224870 5.092623 6.245192 -8.390081 8.073402 6.893725 -3.292766 4.315281 1.647177 0.000000 0.000000 0.000000 -1.924655 0.602236 -45.473785 9.925930 -16.623573 1.453672 -31.738730 14.246396 -27.333738 0.000000 0.000000 0.000000 -7.125000 0.000000 0.000000 -57.469596 48.787877 7.792677 0.000000 0.000000 0.000000 -142.586887 -58.385559 -79.119379 -149.671065 -41.173655 -108.374398 -8.493752 -29.429455 -4.984315 0.000000 0.000000 0.000000 7.125000 0.000000 0.000000 13.533446 24.925401 6.750275
-22.190011 16.401237 2.739479 -177.169998 18.052548 -168.316594 0.000000 0.000000 0.000000 -18.443105 -9.729610 -18.126511 2.274064 9.415001 27.102369 1.969491 -3.368251 -25.699918 0.032003 1.133299 3.115952 0.000000 0.000000 0.000000 13.541322 11.296604 -15.319817 -1.561896 -7.886738 22.370532 0.031388 -8.695320 -11.779922 -0.686579 5.297164 -14.758150 -0.476503 0.810984 -13.568764 1.274393 1.606788 -4.880928 1.853144 1.031006 2.421391 3.473883 5.098154 6.315783 -8.335868 8.063467 6.781790 -3.324272 4.312156 1.606129 0.000000 0.000000 0.000000 -1.916499 0.571824 -45.473714 9.929943 -16.629882 1.454820 -31.693617 14.320917 -27.447994 0.000000 0.000000 0.000000 -7.125000 0.000000 0.000000 -57.545766 48.874020 7.977465 0.000000 0.000000 0.000000 -141.931216 -58.374525 -78.464873 -149.791454 -41.071439 -108.453613 -9.237382 -29.572665 -5.345286 0.000000 0.000000 0.000000 7.125000 0.000000 0.000000 12.952862 24.561330 6.558140
-22.195720 16.402425 2.740815 -177.060104 18.197984 -168.407603 0.000000 0.000000 0.000000 -18.368416 -9.780212 -17.958707 2.279821 9.426216 27.137853 1.989765 -3.140573 -25.883138 0.111859 2.156269 5.937590 0.000000 0.000000 0.000000 13.658096 11.206571 -15.377379 -1.583776 -7.939196 22.529425 0.010940 -8.421400 -11.788333 -0.695023 5.329325 -14.850204 -0.386298 0.770011 -13.368137 1.327790 1.529042 -4.841494 1.841043 0.987971 2.357731 3.541913 5.212638 6.789858 -8.189540 8.146178 6.241899 -3.310106 4.360492 1.348515 0.000000 0.000000 0.000000 -1.920813 0.511518 -45.158001 9.878598 -16.549527 1.440215 -31.633774 14.926675 -27.005367 0.000000 0.000000 0.000000 -7.125000 0.000000 0.000000 -57.099710 48.579404 7.301033 0.000000 0.000000 0.000000 -141.545711 -58.573508 -78.036190 -150.054724 -40.846441 -108.626213 -10.534653 -29.751501 -5.018939 0.000000 0.000000 0.000000 7.125000 0.000000 0.000000 12.027495 24.867095 5.981104
-22.204838 16.400225 2.740519 -177.095159 18.426364 -168.440905 0.000000 0.000000 0.000000 -18.460796 -9.850200 -17.916095 2.290838 9.447292 27.204820 1.979841 -2.730091 -25.903573 0.104916 2.088840 5.751281 0.000000 0.000000 0.000000 13.610163 10.995419 -15.597119 -1.601357 -7.980988 22.656432 0.004995 -8.215458 -11.610670 -0.795904 5.694288 -15.900059 -0.381146 0.758749 -13.152938 1.323471 1.516617 -4.912948 1.824097 0.984299 2.167663 3.469656 5.346579 7.024085 -7.900514 8.273339 6.008351 -3.209545 4.423066 1.222885 0.000000 0.000000 0.000000 -1.890311 0.665633 -45.096884 9.866281 -16.530061 1.436640 -31.587018 15.338215 -26.399352 0.000000 0.000000 0.000000 -7.125000 0.000000 0.000000 -56.520725 48.166111 6.380055 0.000000 0.000000 0.000000 -140.704106 -58.745940 -77.064640 -149.940280 -40.944582 -108.551221 -11.957231 -29.812379 -5.227746 0.000000 0.000000 0.000000 7.125000 0.000000 0.000000 10.960355 24.635354 5.490325
-22.213378 16.400645 2.739423 -177.071481 18.646814 -168.604853 0.000000 0.000000 0.000000 -18.516327 -9.696466 -17.719416 2.288320 9.442506 27.189643 1.973338 -2.803776 -25.842729 0.146788 2.468707 6.802888 0.000000 0.000000 0.000000 13.616736 10.769260 -15.695394 -1.639671 -8.071313 22.930976 -0.035444 -7.677984 -11.678180 -0.738425 5.488492 -15.307434 -0.222055 0.972788 -12.857750 1.066064 1.774379 -4.897252 1.494844 1.103638 2.029213 4.110706 5.234187 6.961028 -7.731307 8.135766 6.099446 -3.266531 4.356129 1.274544 0.000000 0.000000 0.000000 -1.449726 0.723643 -45.640245 9.888854 -16.565599 1.443128 -31.759795 15.838968 -25.615645 0.000000 0.000000 0.000000 -7.125000 0.000000 0.000000 -55.935983 47.585031 5.159344 0.000000 0.000000 0.000000 -138.808688 -58.466702 -75.576665 -150.390912 -40.555661 -108.845345 -12.256098 -30.448086 -4.775369 0.000000 0.000000 0.000000 7.125000 0.000000 0.000000 10.773140 25.084402 5.278673
-22.225467 16.400846 2.738195 -177.205257 18.830623 -168.571259 0.000000 0.000000 0.000000 -18.713630 -9.821566 -17.710807 2.273758 9.414379 27.100223 1.963971 -2.620976 -25.819467 0.107184 2.109908 5.809554 0.000000 0.000000 0.000000 13.362494 10.711918 -16.029264 -1.681168 -8.167711 23.224545 -0.072248 -7.230889 -11.815124 -0.734304 5.474578 -15.267274 -0.373467 0.969681 -12.836555 1.088302 1.790974 -4.928950 1.604273 1.114963 1.979234 3.941783 5.366168 7.255818 -7.278071 8.234252 5.749928 -3.097358 4.399631 1.087037 0.000000 0.000000 0.000000 -1.586916 0.678384 -45.381020 9.850834 -16.505973 1.432330 -32.132069 16.374053 -25.087945 0.000000 0.000000 0.000000 -7.125000 0.000000 0.000000 -55.708283 47.147384 4.284170 0.000000 0.000000 0.000000 -137.316482 -58.618259 -73.657494 -150.705369 -40.281048 -109.049340 -14.694212 -29.778914 -4.768506 0.000000 0.000000 0.000000 7.125000 0.000000 0.000000 8.958164 25.046482 4.377690
-22.230145 16.402172 2.739884 -177.150519 19.011008 -168.354653 0.000000 0.000000 0.000000 -18.659443 -9.942491 -17.845907 2.260803 9.389422 27.021181 1.940121 -2.188919 -25.757390 0.130209 2.325229 6.405445 0.000000 0.000000 0.000000 13.323033 11.013064 -16.367978 -1.719121 -8.254723 23.490516 -0.065807 -7.271743 -11.743110 -0.763154 5.578634 -15.566648 -0.382189 0.917811 -13.010709 1.132859 1.724196 -4.917395 1.651749 1.082602 2.085562 3.665581 5.535903 7.176168 -6.680751 8.388136 5.718670 -2.842798 4.459798 1.058286 0.000000 0.000000 0.000000 -1.507364 0.644761 -45.939444 9.908260 -16.595971 1.448647 -31.795505 15.994748 -24.935940 0.000000 0.000000 0.000000 -7.125000 0.000000 0.000000 -55.366901 47.094801 4.134345 0.000000 0.000000 0.000000 -136.958836 -58.533967 -73.251509 -150.693613 -40.291371 -109.041743 -16.427182 -29.579539 -4.954806 0.000000 0.000000 0.000000 7.125000 0.000000 0.000000 7.657468 24.814416 3.769286
-22.233021 16.403797 2.739423 -177.099821 19.280262 -168.234664 0.000000 0.000000 0.000000 -18.630493 -9.632116 -18.030637 2.252679 9.373651 26.971155 1.928687 -2.335037 -25.644041 0.165094 2.610333 7.196152 0.000000 0.000000 0.000000 13.312879 11.060562 -16.679982 -1.748914 -8.322220 23.697225 -0.075236 -7.069815 -11.672734 -0.819942 5.777239 -16.139465 -0.670584 0.866431 -13.112544 1.317128 1.690429 -4.919131 2.004639 1.071277 2.125995 3.737500 5.647093 7.174218 -6.561150 8.526506 5.702985 -2.815810 4.526437 1.059269 0.000000 0.000000 0.000000 -1.841349 0.554775 -45.455524 9.759981 -16.363303 1.406543 -31.752269 16.251670 -25.107445 0.000000 0.000000 0.000000 -7.125000 0.000000 0.000000 -55.488167 47.224693 4.399847 0.000000 0.000000 0.000000 -136.268885 -58.304554 -72.312879 -150.929986 -40.082689 -109.194186 -18.962423 -29.183677 -3.870940 0.000000 0.000000 0.000000 7.125000 0.000000 0.000000 5.796765 25.882804 2.700968
